<svg xmlns="http://www.w3.org/2000/svg" viewBox="0 0 351.55 70.61"><g id="レイヤー_2" data-name="レイヤー 2"><g id="レイヤー_1-2" data-name="レイヤー 1"><polygon points="268.3 0 263.8 5.7 258.1 2.6 259.5 10.8 259.5 39.6 242.3 10.1 226.2 10.8 226.2 69.1 242.3 69.1 242.3 39.6 259.5 69.1 275.6 69.1 275.6 10.1 277 4.1 271.7 5.5 268.3 0"/><path d="M348.7,44.6s2,7.3-10.7,11.1a35.73,35.73,0,0,0,3.8-15.4c0-13.6-9-31.2-29.7-31.2-16.7,0-29.4,11.8-29.4,30.6a32.06,32.06,0,0,0,4.9,17.6v.2l.4.5a29,29,0,0,0,20.3,12.3h.4a9.85,9.85,0,0,0,1.7.2,19.27,19.27,0,0,0,2.4.1h.6a16.68,16.68,0,0,0,3.1-.2h.3C332.3,68.8,360.6,57.6,348.7,44.6ZM308.8,22.3c10.2,0,15.6,11.8,15.6,21.4,0,9.4-4.8,14-9.4,14-6,0-16.8-7.3-16.8-21.7C298.2,31.6,299.2,22.3,308.8,22.3Z"/><path d="M46.9,10.1l-18.2.6L16.2,34.9V10.1l.6-4.6-5,3L9.1,5.2l-4,3.1L0,4.7V69.1H16.2v-26c7.1,5,11.9,11.4,16.6,26H51.5C43.8,48,35.7,39.9,32.8,36.9Z"/><path d="M89.2,45c0,7.3-3.6,10-7.8,10-5,0-7.6-4.2-7.6-10V10.1l-16.1.6V46c0,7.7.8,11.5,3,14.8,3.9,5.9,11.4,9.8,20.9,9.8,11.5,0,18.1-5.7,20.8-9.9s3-8.2,3-14.7V10.1l-16.1.6Z"/><path d="M135.4,23.2c4.1,0,12.4,2.6,14.2,3.1L154.9,13,157,8l-4,1.6-2.3-6.7-5.4,4.4-2.2-3.7-5.8,5.6h-1.1c-19.4,0-24.1,13.4-24.1,20.6a11.67,11.67,0,0,0,3.7,8.4c2.5,2.4,3.8,3,17.9,9.5,3.5,1.7,4.4,3.2,4.4,4.5,0,1.9-1.8,3-4.7,3-4.1,0-11.4-1.2-19-3.5L111.1,68a99.54,99.54,0,0,0,23.7,2.6c7.5,0,11.4-1.1,15.5-5.4a21.51,21.51,0,0,0,5.9-15c0-9.6-7-13.1-14.9-16.6-9.4-4.3-11.4-5.2-11.4-7.1C130.1,25.1,132,23.2,135.4,23.2Z"/><path d="M181,11.9,160.5,69.1h16.6l3.1-9.9,18.2-.2,3.1,10H220L198.1,9.2Zm3.2,34.2,5.2-16.9,5,16.5Z"/></g></g></svg>