<?xml version="1.0" encoding="utf-8"?>
<!-- Generator: Adobe Illustrator 26.0.1, SVG Export Plug-In . SVG Version: 6.00 Build 0)  -->
<svg version="1.1" id="レイヤー_1" xmlns="http://www.w3.org/2000/svg" xmlns:xlink="http://www.w3.org/1999/xlink" x="0px"
	 y="0px" viewBox="0 0 351.5 70.7" style="enable-background:new 0 0 351.5 70.7;" xml:space="preserve">
<style type="text/css">
	.st0{fill:#FFFFFF;}
</style>
<g>
	<polygon points="268.3,0 263.8,5.7 258.1,2.6 259.5,10.8 259.5,39.6 242.3,10.1 226.2,10.8 226.2,69.1 242.3,69.1 242.3,39.6 
		259.5,69.1 275.6,69.1 275.6,10.1 277,4.1 271.7,5.5 	"/>
	<path d="M348.7,44.6c0,0,2,7.3-10.7,11.1c2.4-4.8,3.7-10,3.8-15.4c0-13.6-9-31.2-29.7-31.2c-16.7,0-29.4,11.8-29.4,30.6
		c-0.1,6.2,1.6,12.4,4.9,17.6c0,0.1,0,0.2,0,0.2L288,58c4.7,6.8,12.1,11.3,20.3,12.3h0.4c0.6,0.1,1.1,0.2,1.7,0.2
		c0.8,0.1,1.6,0.1,2.4,0.1h0.3h0.3c1,0,2,0,3.1-0.2h0.2h0.1C332.3,68.8,360.6,57.6,348.7,44.6z M308.8,22.3
		c10.2,0,15.6,11.8,15.6,21.4c0,9.4-4.8,14-9.4,14c-6,0-16.8-7.3-16.8-21.7C298.2,31.6,299.2,22.3,308.8,22.3z"/>
	<path d="M46.9,10.1l-18.2,0.6L16.2,34.9V10.1l0.6-4.6l-5,3L9.1,5.2l-4,3.1L0,4.7v64.4h16.2v-26c7.1,5,11.9,11.4,16.6,26h18.7
		C43.8,48,35.7,39.9,32.8,36.9L46.9,10.1z"/>
	<path d="M89.2,45c0,7.3-3.6,10-7.8,10c-5,0-7.6-4.2-7.6-10V10.1l-16.1,0.6V46c0,7.7,0.8,11.5,3,14.8c3.9,5.9,11.4,9.8,20.9,9.8
		c11.5,0,18.1-5.7,20.8-9.9s3-8.2,3-14.7V10.1l-16.1,0.6L89.2,45z"/>
	<path d="M135.4,23.2c4.1,0,12.4,2.6,14.2,3.1l5.3-13.3l2.1-5l-4,1.6l-2.3-6.7l-5.4,4.4l-2.2-3.7l-5.8,5.6h-1.1
		c-19.4,0-24.1,13.4-24.1,20.6c0,3.2,1.4,6.2,3.7,8.4c2.5,2.4,3.8,3,17.9,9.5c3.5,1.7,4.4,3.2,4.4,4.5c0,1.9-1.8,3-4.7,3
		c-4.1,0-11.4-1.2-19-3.5L111.1,68c7.8,1.8,15.7,2.7,23.7,2.6c7.5,0,11.4-1.1,15.5-5.4c3.8-4.1,6-9.4,5.9-15c0-9.6-7-13.1-14.9-16.6
		c-9.4-4.3-11.4-5.2-11.4-7.1C130.1,25.1,132,23.2,135.4,23.2z"/>
	<path d="M181,11.9l-20.5,57.2h16.6l3.1-9.9l18.2-0.2l3.1,10H220L198.1,9.2L181,11.9z M184.2,46.1l5.2-16.9l5,16.5L184.2,46.1z"/>
</g>
<g>
	<ellipse transform="matrix(0.989 -0.1476 0.1476 0.989 0.6452 44.5207)" class="st0" cx="300.3" cy="17.9" rx="2.1" ry="4.4"/>
	
		<ellipse transform="matrix(2.966500e-02 -0.9996 0.9996 2.966500e-02 283.6886 325.3436)" class="st0" cx="309.4" cy="16.6" rx="4.4" ry="2.1"/>
</g>
<g>
	<ellipse class="st0" cx="81.5" cy="62" rx="1.6" ry="3.3"/>
	<ellipse class="st0" cx="87.4" cy="62" rx="1.6" ry="3.3"/>
</g>
</svg>
