<svg xmlns="http://www.w3.org/2000/svg" viewBox="0 0 840.13 495.86"><defs><style>.cls-1{fill:#060001;}.cls-12,.cls-2,.cls-3{fill:#2accc8;}.cls-2,.cls-3{stroke:#2accc8;}.cls-10,.cls-11,.cls-13,.cls-15,.cls-16,.cls-17,.cls-18,.cls-2,.cls-3,.cls-5,.cls-6,.cls-7,.cls-8,.cls-9{stroke-linejoin:round;}.cls-2,.cls-5{stroke-width:6px;}.cls-10,.cls-3,.cls-6{stroke-width:5px;}.cls-4{fill:#ccc;}.cls-5,.cls-6,.cls-7,.cls-8{fill:#fb6d10;stroke:#fb6d10;}.cls-7{opacity:0.8;}.cls-10,.cls-11,.cls-9{fill:#fff;}.cls-10,.cls-11,.cls-13,.cls-9{stroke:#000;}.cls-11,.cls-13{stroke-width:8px;}.cls-13{fill:none;}.cls-14,.cls-15,.cls-16,.cls-17,.cls-18{fill:#c6c6c6;stroke:#c6c6c6;opacity:0.5;}.cls-14{stroke-miterlimit:10;}.cls-15,.cls-16,.cls-17,.cls-18{stroke-linecap:round;}.cls-15{stroke-width:0.25px;}.cls-16{stroke-width:0.5px;}.cls-18{stroke-width:0.75px;}</style></defs><g id="レイヤー_2" data-name="レイヤー 2"><g id="ロゴ表_" data-name="ロゴ表１"><circle class="cls-1" cx="507.89" cy="138.34" r="14.34"/><circle class="cls-1" cx="550.93" cy="180.64" r="5.12"/><path class="cls-1" d="M221,80.4s9.53-1.09,12.55,10.23c1.08,4,1.74,16.68-6.11,18.36-2.12.36-11.91-2.81-14-18.17C213.59,88.5,214.41,81.56,221,80.4Z"/><path class="cls-1" d="M654,156.34s.23,11.37,8.13,15.39c1.55.7,7.08-7.54,7.07-15.57a8.27,8.27,0,0,0-8.32-7.92A7.29,7.29,0,0,0,654,156.34Z"/><circle class="cls-1" cx="460.61" cy="448.3" r="9.5"/><circle class="cls-1" cx="481.33" cy="459.86" r="7.7"/><path class="cls-1" d="M322,467.13s12.49,7,12.87,17.22c-1.49,6.53-4.2,11.09-11.09,11.49-4.45.31-12.73-2-13.25-12C310.29,480.22,316.3,467.63,322,467.13Z"/><path class="cls-1" d="M733.31,436.76s-7.8-.29-8,9.23c.09,2.6,3.27,22.09,16.54,22.18,10.52-.1,9.72-10,9.92-12.48S749.55,439.19,733.31,436.76Z"/><path class="cls-1" d="M82.56,279.52c-2.67.7-29-3.1-26.89-10.58C55.41,266.83,60,261,75.3,260c2.21-.08,24.66,2.62,25.63,7.45C101.17,269.12,89.46,279.62,82.56,279.52Z"/><path class="cls-1" d="M691.31,14.28s-11.13.41-11.11,15.23c.11,2.89,5,21.72,5.2,27.23s.21,9,4.93,9.13,13.41-24.11,12.92-33.8S699.73,14.89,691.31,14.28Z"/><path class="cls-1" d="M92.45,178.28a6.58,6.58,0,0,1-6.88,6.11c-6.61.16-14.21-10.93-32.65-13.93S.9,161.92,0,149c-.25-4.51,9-15.89,29.62,2.09,8.76,8.54,7.81,13.9,35.34,19.19,8.92,1.51,16.38,2.69,21,3.3S92,176.43,92.45,178.28Z"/><path class="cls-1" d="M330.16,0s-14.48-2.13-17.57,24.44c-.28,5,4.43,56.35,0,70.92-.82,4.9-3.91,17.66-7,22s-13.82,17.64-19.3,3.13c-1.27-3.29-1.07-7.2-1.14-8.92s-1.15-6.4-10.11-6.18-11.52,5.48-11.35,10.07,2,14.06-6.48,14.38c-1.88.18-6.25.23-8.87-6.76-.57-1.36-4-3.94-8.21-3.9-1.66.12-11.33,1.8-11,11.29.06,1.79,4.84,11-1.54,17.51-1.28,1.43-2.9,2.58-6.64,2.66s-7.9-1.9-13.93-5.93S188.7,127,186.13,124.58s-9.79-12.83-12.31-16.94-8.21-17.21-9-19.28-5.35-11.58-9.53-16.08-10.38-12.4-14.38-15.47S132.3,50.75,126.7,51s-11.44,3.92-11.1,13.06a35.89,35.89,0,0,0,7.85,20.33c6.86,8.62,15.93,20.21,25.09,26.47,1.82,1.47,13.76,11.18,18.69,17.32s14.53,18,18.56,26.55,3.55,10.64,3.66,13.49-1.18,13.35-12.65,13-18.72-4.54-23.65-6.9S130.74,160.46,126.48,158s-21.76-15.48-28.9-21.54-18.21-16-24.4-22.67S43.88,81,19.12,82.53c-4.42.31-14,.81-14.35,11.46.11,3.1.47,16.83,29.14,32.91,2.43,1.83,33.16,16.34,48.25,20.27,2.06.58,23.15,7.64,35.12,24.27,1,1.76,2.72,7.33-8.2,10.19-2.59.66-4.16,4.72-4.09,8.72s1.15,9,14.55,13.68c1.76.57,28.41,9.73,36,17.87s6.63,10.63,6.74,13.52-2.19,13.13-10.85,17.18-14.93,7.43-24.19,9.86c-2.07.61-7.28,4.83-7.29,12.28,0,2.67,1.87,13.05,14.46,13.34,1.94.12,17.82,3.77,18.69,18.77.13,2.25,0,14.77-24.63,16.78-2,.18-34.55.64-46.54,8.17-2,1.37-9.21,6.12-9.13,13.65,0,2.61,2.06,12.28,17.19,11.42,2.11,0,20-4,35.88-15.39,2.27-1.09,13.39-10.13,23.93-10.22,2-.07,15.21-1.47,27,11.76,1.79,2.24,12.12,18.33,4.87,34.16-1.1,2.66-14,26.23-33.49,36.69-2,1.17-39.7,22.29-46.45,36-1.6,2.84-6.11,11.79.6,21.23,1.61,2.36,11.6,8.27,24.46-2.88,2.72-1.8,19.63-19.64,24.19-29.76,1.16-2.56,17.16-25.92,19.94-28.36s13.8-18.44,30-19.13c2.3-.14,25.86.93,28.17,26.52a30.34,30.34,0,0,1-7.5,20.28c-1.31,1.49-3.39,7.37-2.73,13.37s1,11.58,10.74,11.44S245,452,247.78,442.89s2.75-11.86,13.62-21.51,23.47-16,33.6,4.06c6.05,12.26,3.93,24.67,21.09,25.26,11.76,0,15.87-14.79,15.67-18.3S325.27,403,354.07,398c4-.53,27.14-4.38,27.83,10.8s-.07,19.24-1.4,21.89,1.39,13.21,8.88,11.76c3.23-.38,9.82-1.4,12.31-11.5s10.16-16.88,17.67-17.81,17.86,8.44,19.4,11.5,6.5,7,11.41,6.47,9-4,8.4-8.5-3.05-5.22-3-10.42,5.85-10.48,12.34-10.72,10.44,11.83,16.62,10.17,7.87-5.1,7-8.18-6.75-12.1,8.44-12.53S515.61,399.2,515.8,401s-3,6.74-7.08,8.71S497.44,414,498.87,421s5.63,8.37,9.92,8.21,17.58-12,18.89-15.21c.53-1.16,7.21-3.3,10.13-3.35s8.13,0,8.79,7c.19,2.06,1.81,8.69,10.72,8.14,1.61.17,8.4-1.92,9.93,8.62.32,2.39-2,17-10.47,28.09-1.47,2.24-12.28,16.35-11.48,23.08s6.18,9.18,9.83,8.95,12.78-5.13,13.53-14.66,3.19-32.37,9-38,16-13.93,25.73,3.89c3.74,6.88-3.68,15.89,9.14,17.06,3.3.53,10.43-4.54,9.18-17.82-.41-2.89,6.77-15.38,18.89-16s17.73,7.89,20,12.42,5.1,13.2,15.76,12.58,7.75-12.44,7.2-15.11-6.23-19.57-6.1-25.31,1-18.84,26.35,3c3.53,2.75,16.79,14,21.89,2.18,1.21-3.36-1.23-15.56,16.45-13.45,2.57.57,20.2,4.25,49.34,36.08,3.05,4.15,22.36,27.29,40.52,26.89,14.28-.25,5.54-16.48,4.28-18.79s-14.12-17.39-36.55-24.79c-5-1.35-44.72-20.73-58.53-38S704.4,329.63,753.82,327c17.35-.42,33.84,10.84,37.65,12.15s18.62,2.35,18.1-11.67c-.34-9.11-9.27-12-21.14-12s-44.06,6.69-47.79-12c-.6-4.47,2-9.49,5.09-11.34,1.28-.48,1.91-6.87-9.64-10.07-3.06-.61-6.1-8.31,9.34-13.66,3-.69,12-3.49,19.63-1.59,2.2.78,17.25-7.16,6.79-16-3-2.06-7.49-2.9-13.61.07s-22.91,10.69-29,2.23c-1.83-2.39-7.06-14.65.9-26.52s19.38-20.26,37.77-27.89c3.44-1,24.64-10.47,22.92-25.46s-20.54-9.34-24.53-4.33-13,11.93-17.31,20.15c0,0-20.66,30-43.64,30.93-10.42.39-12.14-11.17-11.56-24.74s7.94-44.07,9.67-49.62,3.77-17.35,7.68-22.23S730.86,104,730.34,86.17s-15.15-18-20.08-2.33-16.61,60.33-17.2,61.89S681.11,183,668.21,194.58s-17.37,5.13-23.58-3.62c-1.66-3.14-2.21-14.52-2.23-22.08.13-3.47-5.53-10.95-12.93-10.16s-9.25,6.49-8.88,9.55c.12,3.33,3.54,12.43,6.82,18.08s-1.21,15.93-8.82,17.88c-3.93,1.17-11.54-.22-11.54-.22s-6.55-.14-9.31-15.93c-.55-4.46-6.9-6.54-10.87-6.39s-12,5.06-5.57,15.71c1.24,2.39,1.74,15.83-8.33,17.48-4.21.41-10.57-5.25-13.49-15-1.18-4.18-11.9-14.93-20.88-1.27-2.19,3-17.39,14.73-20.87-3.21-.78-3.56,7.27-35.64-8-34.82-5.11.45-10.84,5.14-10.13,13.7s4,17.29,3.9,19,.13,24.34-20.1,14.58c-4.37-2.11-10.9-11.88-12.46-28.12-.72-5-7.7-18.13-18.41-17s-10.67,8.06-10.53,12c0,0,2.91,15.14,13.44,24.1s.4,18.4-3.25,19.39-36.84,7.31-38.07-10.78c-.21-5.66,4.16-10.07,13.62-14.67,3.06-1.52,5.95-15.23-7.18-17.86s-11,9.75-19.21,16.57-16.91,10.26-22-4.28c-2-7.86-5.86-28.4,21-52.06,5.77-4.74,29.49-30,15.61-45.33-4.16-5.23-23.08,4.25-30,24.9-2.33,6-15.65,36.55-44,27.69-7.16-2.29-16.51-9.88-19.57-31.29,0-6.8-3.54-21.57,9.15-47.38C340.54,44.31,356.74,2.1,330.16,0Z"/><path class="cls-2" d="M269.26,142.57l80.16-15.37a16.54,16.54,0,0,1,19.33,13.06c6,30.56,13.21,98.63-27,149.8a16.53,16.53,0,0,0-3.3,13.13l13,73.06a16.53,16.53,0,0,1-12.67,19l-43.86,9.8a16.53,16.53,0,0,1-19.79-12.74l-5.77-27.52A16.54,16.54,0,0,0,249.78,352l-44.49,9.33a16.52,16.52,0,0,1-19.57-12.78l-3.5-16.68a16.5,16.5,0,0,1,9.17-18.3c27.38-12.91,90.26-53.9,65-150.6A16.53,16.53,0,0,1,269.26,142.57Z"/><path class="cls-3" d="M568.92,333.6,573,334a3.14,3.14,0,0,1,2.86,3.42l-.83,9.13a3.14,3.14,0,0,1-3.42,2.85l-3.76-.34a3.15,3.15,0,0,1-2.86-3.32l.53-9.15A3.15,3.15,0,0,1,568.92,333.6Z"/><rect class="cls-3" x="575.41" y="337.93" width="15.97" height="8.98" rx="3.15" transform="translate(189.79 892.59) rotate(-84.83)"/><path class="cls-3" d="M596.23,336.07l8.42.76a3.15,3.15,0,0,1,2.86,3.18c-.08,8.55-2.82,32.84-31.44,30.85a3.18,3.18,0,0,1-3-3.44h0a3.16,3.16,0,0,1,2.34-2.76c4.68-1.26,15.61-6.25,17.36-25.75A3.17,3.17,0,0,1,596.23,336.07Z"/><path class="cls-2" d="M700.37,261.57c-10.8,1.23-41.59,4.33-66.84,3a3.16,3.16,0,0,0-3.31,2.77l-2.35,19.18a3.14,3.14,0,0,0,2.74,3.51l10.28,1.26a3.16,3.16,0,0,1,2.75,3.52l-.62,5.05a3.15,3.15,0,0,1-3.51,2.75l-19.86-2.44a3.17,3.17,0,0,0-3.52,2.75l-3.39,27.69a3.16,3.16,0,0,0,2.75,3.52l20,2.46a3.13,3.13,0,0,1,2.73,3.67c-.92,5.44-5.32,15.55-25.53,14.59a3.16,3.16,0,0,0-3.31,2.76l-1.2,9.77a3.15,3.15,0,0,0,2.59,3.49c11.87,2,56,7.32,65.1-24.83a3.17,3.17,0,0,1,3.42-2.32l19.35,2.38a3.16,3.16,0,0,0,3.51-2.75l3.29-26.82a3.16,3.16,0,0,0-2.75-3.52l-21.6-2.65a3.14,3.14,0,0,1-2.74-3.51l1-8.54a3.16,3.16,0,0,1,3.52-2.75l13.76,1.69a3.15,3.15,0,0,0,3.51-2.75l3.61-29.44A3.15,3.15,0,0,0,700.37,261.57Z"/><path class="cls-2" d="M351.53,279.6l1.67-.18a7.25,7.25,0,0,0,6.43-8l-.39-3.6a7.25,7.25,0,0,1,6.43-8l32.43-3.49a7.25,7.25,0,0,1,8,6.43l.16,1.54a7.25,7.25,0,0,0,8,6.43l39.63-4.27a7.25,7.25,0,0,1,8,6.43l11.43,106a7.25,7.25,0,0,1-6.43,8l-29.2,3.15a7.25,7.25,0,0,1-8-7.33,232.87,232.87,0,0,0-4.17-48.22,7.26,7.26,0,0,0-7.9-5.81h0a7.24,7.24,0,0,0-6.46,7.62c.73,12.62,2,39.28.21,51.63a7.22,7.22,0,0,1-6.4,6.16L378.72,397a7.23,7.23,0,0,1-8-7.19c0-11.46-.33-32.83-2.22-48.53a7.24,7.24,0,0,0-8-6.36l-3.75.4a7.24,7.24,0,0,1-8-6.56l-3.68-41.26A7.26,7.26,0,0,1,351.53,279.6Z"/><path class="cls-2" d="M474.69,261.33l103.93-2.53a6.25,6.25,0,0,1,6.4,6.06c.48,15.33-1.34,55-31.22,72.92a6.26,6.26,0,0,0-1.13,9.91h0a6.24,6.24,0,0,1,.21,8.83l-13.39,14.06a6.25,6.25,0,0,1-8.84.22L499,340.61a6.25,6.25,0,0,1-.22-8.84l8.76-9.19a6.25,6.25,0,0,1,8.84-.22l1.28,1.23a6.25,6.25,0,0,0,8.84-.22l11.35-11.91a6.25,6.25,0,0,0-4.68-10.56l-56.62,1.38a6.25,6.25,0,0,1-6.39-5.92l-1.52-28.44A6.25,6.25,0,0,1,474.69,261.33Z"/><polygon class="cls-4" points="693.64 256.08 690.3 283.72 671.56 281.36 671.8 279.6 688.51 281.79 691.85 256.49 693.64 256.08"/><polygon class="cls-4" points="694.75 307.76 691.84 332.46 668.88 329.65 669.36 327.37 689.91 329.97 692.6 307.54 694.75 307.76"/><path class="cls-5" d="M265.68,139l80.16-15.37a16.55,16.55,0,0,1,19.34,13.06c6,30.55,13.21,98.63-27,149.8a16.55,16.55,0,0,0-3.3,13.12l13,73.06a16.52,16.52,0,0,1-12.67,19l-43.86,9.8a16.53,16.53,0,0,1-19.78-12.74l-5.78-27.52a16.53,16.53,0,0,0-19.57-12.79l-44.48,9.33A16.52,16.52,0,0,1,182.15,345l-3.5-16.68a16.48,16.48,0,0,1,9.17-18.3c27.38-12.91,90.26-53.9,65-150.61A16.53,16.53,0,0,1,265.68,139Z"/><path class="cls-6" d="M565.35,330l4,.37a3.14,3.14,0,0,1,2.85,3.42l-.82,9.12a3.15,3.15,0,0,1-3.43,2.86l-3.75-.34a3.15,3.15,0,0,1-2.87-3.32l.53-9.15A3.16,3.16,0,0,1,565.35,330Z"/><rect class="cls-6" x="571.83" y="334.37" width="15.97" height="8.98" rx="3.15" transform="translate(190.09 885.79) rotate(-84.83)"/><path class="cls-6" d="M592.65,332.51l8.42.76a3.14,3.14,0,0,1,2.86,3.17c-.08,8.56-2.81,32.84-31.43,30.85a3.16,3.16,0,0,1-3-3.43h0a3.17,3.17,0,0,1,2.34-2.77c4.68-1.25,15.6-6.24,17.36-25.74A3.15,3.15,0,0,1,592.65,332.51Z"/><path class="cls-7" d="M600.81,336.36s2.43,28.61-27.27,28.37C573.54,364.73,598.47,367,600.81,336.36Z"/><polygon class="cls-7" points="581.07 333.85 581.92 333.91 581.01 344.25 580.24 344.13 581.07 333.85"/><polygon class="cls-7" points="568.61 333.19 569.43 333.25 568.58 343.13 567.82 343.01 568.61 333.19"/><rect class="cls-8" x="566.03" y="340.41" width="0.61" height="4.52" transform="matrix(0.08, -1, 1, 0.08, 181.69, 881.38)"/><polygon class="cls-8" points="581.02 344.28 577.5 343.94 577.53 343.32 581.05 343.67 581.02 344.28"/><path class="cls-5" d="M696.79,258c-10.8,1.22-41.59,4.32-66.83,3a3.15,3.15,0,0,0-3.32,2.76L624.29,283A3.16,3.16,0,0,0,627,286.5l10.28,1.26a3.14,3.14,0,0,1,2.74,3.51l-.62,5.06a3.15,3.15,0,0,1-3.51,2.75l-19.86-2.44a3.15,3.15,0,0,0-3.51,2.75l-3.4,27.69a3.17,3.17,0,0,0,2.75,3.52L632,333.06a3.13,3.13,0,0,1,2.72,3.67c-.91,5.44-5.32,15.55-25.52,14.59a3.18,3.18,0,0,0-3.32,2.76l-1.19,9.77a3.13,3.13,0,0,0,2.58,3.49c11.88,2,56,7.32,65.1-24.84a3.18,3.18,0,0,1,3.43-2.31l19.34,2.37a3.14,3.14,0,0,0,3.51-2.74L701.91,313a3.16,3.16,0,0,0-2.74-3.51l-21.6-2.65a3.15,3.15,0,0,1-2.75-3.51l1-8.54a3.15,3.15,0,0,1,3.51-2.75l13.76,1.69a3.16,3.16,0,0,0,3.52-2.75l3.61-29.44A3.15,3.15,0,0,0,696.79,258Z"/><path class="cls-5" d="M348,276l1.68-.18a7.25,7.25,0,0,0,6.43-8l-.39-3.6a7.25,7.25,0,0,1,6.43-8l32.43-3.5a7.25,7.25,0,0,1,8,6.44l.17,1.54a7.25,7.25,0,0,0,8,6.43l39.64-4.27a7.25,7.25,0,0,1,8,6.43l11.43,106a7.25,7.25,0,0,1-6.43,8l-29.2,3.15a7.23,7.23,0,0,1-8-7.33A233.69,233.69,0,0,0,421.88,331a7.26,7.26,0,0,0-7.89-5.82h0a7.26,7.26,0,0,0-6.46,7.63c.73,12.61,2,39.28.21,51.63a7.25,7.25,0,0,1-6.4,6.16l-26.19,2.82a7.25,7.25,0,0,1-8-7.19c0-11.46-.33-32.83-2.22-48.53a7.25,7.25,0,0,0-8-6.37l-3.76.41a7.26,7.26,0,0,1-8-6.57l-3.67-41.26A7.25,7.25,0,0,1,348,276Z"/><path class="cls-5" d="M471.11,257.77,575,255.24a6.25,6.25,0,0,1,6.4,6.06c.49,15.33-1.33,55-31.21,72.92a6.25,6.25,0,0,0-1.14,9.9h0a6.25,6.25,0,0,1,.21,8.84L535.92,367a6.25,6.25,0,0,1-8.84.21l-31.7-30.18a6.25,6.25,0,0,1-.21-8.84l8.75-9.19a6.25,6.25,0,0,1,8.84-.22l1.29,1.23a6.24,6.24,0,0,0,8.83-.22l11.35-11.91a6.25,6.25,0,0,0-4.68-10.56l-56.62,1.38a6.25,6.25,0,0,1-6.39-5.92L465,264.35A6.26,6.26,0,0,1,471.11,257.77Z"/><path class="cls-9" d="M265.74,135.29l76.82-14.73A18.33,18.33,0,0,1,364,135.16c5.92,31.33,12.06,97.54-27,147.77a18.33,18.33,0,0,0-3.63,14.46L346,368.27a18.32,18.32,0,0,1-14,21.09l-40.61,9.07a18.33,18.33,0,0,1-21.93-14.12l-5.07-24.15A18.32,18.32,0,0,0,242.67,346l-41.17,8.64a18.33,18.33,0,0,1-21.7-14.17L177,326.85a18.33,18.33,0,0,1,10-20.29c27.85-13.44,88.37-54.36,64.43-148.91A18.27,18.27,0,0,1,265.74,135.29Z"/><path class="cls-10" d="M563.12,326.09l4.06.37a3.15,3.15,0,0,1,2.86,3.43l-.82,9.15a3.16,3.16,0,0,1-3.44,2.86l-3.76-.34a3.17,3.17,0,0,1-2.88-3.33l.54-9.18A3.16,3.16,0,0,1,563.12,326.09Z"/><rect class="cls-10" x="569.62" y="330.43" width="16.01" height="9.01" rx="3.16" transform="translate(192.01 880.03) rotate(-84.83)"/><path class="cls-10" d="M590.5,328.56l8.43.77a3.16,3.16,0,0,1,2.87,3.19c-.08,8.59-2.83,32.91-31.51,30.92a3.18,3.18,0,0,1-3-3.44h0a3.15,3.15,0,0,1,2.32-2.77c4.68-1.24,15.67-6.23,17.43-25.82A3.18,3.18,0,0,1,590.5,328.56Z"/><path class="cls-11" d="M691.13,252.44c-12.43,1.33-38.85,3.71-61.52,2.8a5.72,5.72,0,0,0-5.92,5l-1.76,14.35a5.73,5.73,0,0,0,5,6.37l5.24.64a5.72,5.72,0,0,1,5,6.37h0a5.73,5.73,0,0,1-6.37,5l-14.84-1.82a5.7,5.7,0,0,0-6.37,5l-2.78,22.7a5.71,5.71,0,0,0,5,6.37L626.35,327a5.68,5.68,0,0,1,4.62,7.78c-2.15,5.11-7.8,11.1-22.41,10.95a5.71,5.71,0,0,0-5.71,5l-.61,5a5.7,5.7,0,0,0,4.82,6.35c14.38,2.11,52.68,4.86,62.21-23.61a5.67,5.67,0,0,1,6.08-3.75l14.74,1.81a5.73,5.73,0,0,0,6.37-5l2.67-21.82a5.7,5.7,0,0,0-5-6.37l-16.58-2a5.72,5.72,0,0,1-5-6.37l.43-3.49a5.72,5.72,0,0,1,6.37-5l8.73,1.07a5.71,5.71,0,0,0,6.37-5l2.91-23.79A5.71,5.71,0,0,0,691.13,252.44Z"/><path class="cls-11" d="M344.57,270.17l1.68-.18a7.27,7.27,0,0,0,6.45-8l-.39-3.61a7.27,7.27,0,0,1,6.45-8l32.51-3.5a7.26,7.26,0,0,1,8,6.44l.17,1.55a7.27,7.27,0,0,0,8,6.45L447.18,257a7.28,7.28,0,0,1,8,6.45l11.46,106.31a7.28,7.28,0,0,1-6.45,8l-29.28,3.15a7.25,7.25,0,0,1-8-7.34,234.9,234.9,0,0,0-4.18-48.35,7.29,7.29,0,0,0-7.92-5.83h0a7.28,7.28,0,0,0-6.48,7.65c.73,12.64,2,39.37.21,51.76A7.23,7.23,0,0,1,398.1,385l-26.27,2.84a7.27,7.27,0,0,1-8-7.21c0-11.51-.33-33-2.23-48.71a7.26,7.26,0,0,0-8-6.33l-3.76.4a7.26,7.26,0,0,1-8-6.58L338.11,278A7.27,7.27,0,0,1,344.57,270.17Z"/><path class="cls-11" d="M468.05,251.86l104.19-2.54a6.27,6.27,0,0,1,6.42,6.07c.49,15.37-1.34,55.15-31.29,73.11a6.27,6.27,0,0,0-1.14,9.93h0a6.27,6.27,0,0,1,.21,8.86L533,361.38a6.26,6.26,0,0,1-8.86.22l-31.78-30.26a6.28,6.28,0,0,1-.21-8.87l8.77-9.21a6.28,6.28,0,0,1,8.87-.22l1.28,1.23a6.27,6.27,0,0,0,8.86-.21l11.38-11.95a6.27,6.27,0,0,0-4.69-10.59l-56.76,1.39a6.29,6.29,0,0,1-6.42-5.93l-1.52-28.53A6.26,6.26,0,0,1,468.05,251.86Z"/><circle class="cls-12" cx="324.96" cy="211.5" r="10.67"/><circle class="cls-12" cx="347.34" cy="242.36" r="10.67"/><circle class="cls-12" cx="276.28" cy="312.41" r="17.78"/><circle class="cls-12" cx="290.17" cy="232.71" r="13.63"/><circle class="cls-12" cx="311.92" cy="274.35" r="25.55"/><circle class="cls-12" cx="241.16" cy="297.37" r="8.3"/><circle class="cls-12" cx="208.94" cy="317.71" r="11.52"/><circle class="cls-12" cx="182.21" cy="315.03" r="8.3"/><path class="cls-12" d="M254.46,240.73s12.86,10.25,6.46,24.43-22.22,8-26.4,5.4,13.42-32.44,15.52-31.73"/><path class="cls-12" d="M252.72,337.86s.76-16.91-17.23-19.61C229,318,219.8,328.6,222.17,337.44S245.45,347.85,252.72,337.86Z"/><path class="cls-13" d="M261.57,133l78.65-15.08a17.41,17.41,0,0,1,20.38,13.76c6,31,12.7,98.29-27,149.11a17.33,17.33,0,0,0-3.45,13.73l12.82,72.13a17.43,17.43,0,0,1-13.35,20l-42.36,9.46a17.41,17.41,0,0,1-20.84-13.42L261,356.76a17.41,17.41,0,0,0-20.62-13.47l-43,9a17.41,17.41,0,0,1-20.62-13.47l-3.19-15.18a17.41,17.41,0,0,1,9.53-19.29c27.61-13.15,89.49-54.12,64.9-149.89A17.45,17.45,0,0,1,261.57,133Z"/><path class="cls-14" d="M692.79,258.12l-2.94,24.16a1.32,1.32,0,0,1-1.38.78c-7.27-.66-17.7-4.92-20.26,8.88-3.13,16.86,13.31,13.88,25.07,16.06.55.11,1.29.63,1.23,1.19l-2.64,21.6c-.07.54-.51,1.18-1,1.12L675,330l-.54.06c-.79.23-6.51-.13-9,5.5-3.18,7.21-10.26,28.68-58.2,21.64,0,0,47,5.59,55.89-21.57,2.13-4.68,5.31-10,25.66-6.27a1,1,0,0,0,1.19-.85l2.2-17.14c.08-.6-.41-1-1-1.13-9.67-3-27.2-.38-25-17.11,1.62-17.65,21.24-12.18,21.53-12.13,1.14.23,2.61-18.14,2.74-22.18,0-.51.09-1.64.6-1.69l.89-.07S692.81,257.47,692.79,258.12Z"/><path class="cls-15" d="M598.79,332.8c.09,4.33-.54,29-27.5,27.75-.06,0-.07-.09,0-.09,4.36-.34,24-3.21,27.41-27.65C598.69,332.74,598.78,332.73,598.79,332.8Z"/><polygon class="cls-16" points="579.7 330.01 578.78 340.22 575.46 339.99 575.53 339.55 578.32 339.83 579.28 329.99 579.7 330.01"/><polygon class="cls-16" points="567.26 329.43 566.38 338.99 561.99 338.65 562.04 337.89 565.65 338.19 566.45 329.35 567.26 329.43"/><path class="cls-14" d="M574,254.42s3.75,52.56-31,70.92c-2.89,1.7-6.39,9.59-.6,16.2a1.81,1.81,0,0,1,0,2.43l-12.43,13.19a1.78,1.78,0,0,1-2.46.14h0a1.79,1.79,0,0,1-.1-2.64L539,343.21a1.77,1.77,0,0,0,.28-2.19c-1.83-3-5.61-11.34,3.29-18.36a2.4,2.4,0,0,1,.26-.18C548,319.59,571.12,307.48,574,254.42Z"/><path class="cls-17" d="M450.35,263.5l11.59,106.9c.1.9-.9,2.49-1.79,2.59l-30.24,3.3a2.37,2.37,0,0,1-2.28-1.92h0c0-.84,1.76-.94,1.76-.94l30.16-3.28c-.41-3.69-.52-4.25-.57-5.23L446.83,263.68c-.09-.71-.37-1.83.32-2l1.21,0A2.61,2.61,0,0,1,450.35,263.5Z"/><path class="cls-14" d="M399.46,325.43s2.89,48.74-.42,54.3l-28.81,3.32-1.29-1.86,28.8-3C398.74,378.74,399.91,335.39,399.46,325.43Z"/><path class="cls-18" d="M346.47,122.53s7.57,3.25,8.94,8.16S375.6,221.84,330,277.24c-3.55,4.64-6.28,4.37-3.55,22.93S337.94,367,337.94,367,339,377.94,331.12,381,285,391,285,391c-7,1.4-12.6-5.6-10-5.49,16.14.67,59.36-2.54,58.58-15.82l-10.5-62.55c.07-2.21-5-23.75,1.35-31.19-.41,1.79,46.53-41.45,29-141.69C352.13,128,346.47,122.53,346.47,122.53Z"/><path class="cls-17" d="M389.75,251.81c-.13.06,4-1.23,4.73,2.32s.41,3.95,1.95,6.59c0,0-2.41,2.26-3.87-5.51,0,0-.27-1.77-2.47-1.41Z"/></g></g></svg>