<svg width="48" height="48" viewBox="0 0 48 48" fill="none" xmlns="http://www.w3.org/2000/svg">
<path d="M34 6H14C11.8783 6 9.84344 6.84285 8.34315 8.34315C6.84285 9.84344 6 11.8783 6 14V34C6 36.1217 6.84285 38.1566 8.34315 39.6569C9.84344 41.1571 11.8783 42 14 42H34C36.1217 42 38.1566 41.1571 39.6569 39.6569C41.1571 38.1566 42 36.1217 42 34V14C42 11.8783 41.1571 9.84344 39.6569 8.34315C38.1566 6.84285 36.1217 6 34 6Z" stroke="black" stroke-width="4" stroke-linejoin="round"/>
<path d="M24 32C26.1217 32 28.1566 31.1571 29.6569 29.6569C31.1571 28.1566 32 26.1217 32 24C32 21.8783 31.1571 19.8434 29.6569 18.3431C28.1566 16.8429 26.1217 16 24 16C21.8783 16 19.8434 16.8429 18.3431 18.3431C16.8429 19.8434 16 21.8783 16 24C16 26.1217 16.8429 28.1566 18.3431 29.6569C19.8434 31.1571 21.8783 32 24 32Z" stroke="black" stroke-width="4" stroke-linejoin="round"/>
<path d="M35 15C35.5304 15 36.0391 14.7893 36.4142 14.4142C36.7893 14.0391 37 13.5304 37 13C37 12.4696 36.7893 11.9609 36.4142 11.5858C36.0391 11.2107 35.5304 11 35 11C34.4696 11 33.9609 11.2107 33.5858 11.5858C33.2107 11.9609 33 12.4696 33 13C33 13.5304 33.2107 14.0391 33.5858 14.4142C33.9609 14.7893 34.4696 15 35 15Z" fill="black"/>
</svg>
