<svg xmlns="http://www.w3.org/2000/svg" viewBox="0 0 512.47 144.79"><defs><style>.cls-1{fill:#fff;}.cls-1,.cls-7{stroke:#593a00;stroke-linejoin:round;stroke-width:1.88px;}.cls-2,.cls-7{fill:none;}.cls-3{fill:#805600;}.cls-4{fill:#dd960f;}.cls-5{fill:#593a00;}.cls-6{fill:#bf8208;}.cls-8{font-size:18px;fill:#5f3822;font-family:HiraginoUDSansStd-W6-83pv-RKSJ-H, Hiragino UD Sans Std;}</style></defs><g id="レイヤー_2" data-name="レイヤー 2"><g id="レイヤー_1-2" data-name="レイヤー 1"><path class="cls-1" d="M5.35,64C2.52,64,.94,61.69.94,59.09S2.52,54,5.24,54H67.5c2.71,0,4.3,2.37,4.3,5.08S70.1,64,67.5,64H41.85v74.13c0,3-2.37,4.64-5.42,4.64S31,141.13,31,138.08V64Z"/><path class="cls-1" d="M160.17,110.62c0,19.67-10.85,33.23-28.48,33.23-18.64,0-29.49-13.11-29.49-33.23,0-19.55,11-32.77,29.27-32.77C149.55,77.85,160.17,91,160.17,110.62ZM112.6,111c0,14.35,6.78,24.19,18.42,24.19,12.31,0,18.76-9.61,18.76-24.64,0-14.24-6.45-24-18-24C119.6,86.55,112.6,95.93,112.6,111Z"/><path class="cls-1" d="M279.28,138.2c0,3.05-2.26,4.52-5.19,4.52-3.17,0-5.09-1.47-5.09-4.52V102c0-9.6-2.71-15-10.85-15-6,0-9.94,3.62-12.66,7.69a20,20,0,0,0-3.05,10.17V138.2c0,3.05-2.14,4.52-5.08,4.52-3.17,0-5.09-1.47-5.09-4.52V102c0-9.6-2.82-15-10.85-15-6,0-9.6,3.51-12.31,7.58a20.09,20.09,0,0,0-3.06,10.84V138.2c0,3.05-2,4.52-5,4.52-3.16,0-5.2-1.47-5.2-4.52v-55c0-2.94,2.15-4.41,5.31-4.41,2.83,0,4.86,1.47,4.86,4.41v2.38a33.14,33.14,0,0,1-.79,5.42c2.83-6.67,7.57-13,18.65-13,9.94,0,15.37,4.52,16.84,12.32C244,84.4,248.09,78,260.64,78c13.33,0,18.64,8,18.64,21.81Z"/><path class="cls-1" d="M372.63,110.62c0,19.67-10.85,33.23-28.47,33.23-18.65,0-29.5-13.11-29.5-33.23,0-19.55,11-32.77,29.27-32.77C362,77.85,372.63,91,372.63,110.62Zm-47.57.34c0,14.35,6.78,24.19,18.42,24.19,12.31,0,18.76-9.61,18.76-24.64,0-14.24-6.45-24-18-24C332.06,86.55,325.06,95.93,325.06,111Z"/><path class="cls-1" d="M460.33,138.2c0,3.05-2.26,4.52-5.2,4.52s-5.2-1.47-5.2-4.52V102c0-9.6-3.84-15-12.32-15-6.1,0-11.18,2.72-15,8a17.88,17.88,0,0,0-3.95,11.52V138.2c0,3.05-2.15,4.52-5.09,4.52-3.16,0-5.19-1.47-5.19-4.52v-55c0-2.94,2.14-4.41,5.31-4.41,2.94,0,5,1.47,5,4.41v3c0,1.47-.34,2.6-.45,4.75,3.95-8,10.73-13.11,21.47-13.11,13.45,0,20.68,8.14,20.68,22Z"/><path class="cls-1" d="M511.52,60.79A7.63,7.63,0,1,1,504,53.21,7.53,7.53,0,0,1,511.52,60.79ZM498.75,83.16c0-2.94,1.93-4.41,5.09-4.41s5.2,1.47,5.2,4.41v55c0,3.05-2.15,4.52-5.2,4.52s-5.09-1.47-5.09-4.52Z"/><path class="cls-2" d="M67.5,54H5.23C2.52,54,.94,56.38.94,59.09S2.52,64,5.35,64H31V100a70.11,70.11,0,0,1,10.85-5V64H67.5c2.6,0,4.3-2.26,4.3-4.86S70.21,54,67.5,54Z"/><path class="cls-3" d="M41.85,95v43.09c0,3.06-2.37,4.64-5.43,4.64S31,141.14,31,138.08V100A70.11,70.11,0,0,1,41.85,95Z"/><path class="cls-2" d="M131.47,77.85c-15.52,0-25.75,9.49-28.52,24.28,3.26,1.62,6.52,3.22,9.83,4.67,1.21-12.58,8-20.25,19-20.25,11.52,0,18,9.72,18,24a46.73,46.73,0,0,1-.33,5.69c3.44.32,6.89.47,10.36.47a45.62,45.62,0,0,0,.37-6C160.17,91,149.55,77.85,131.47,77.85Z"/><path class="cls-4" d="M159.8,116.67c-2,16.35-12.34,27.18-28.11,27.18-18.64,0-29.49-13.11-29.49-33.23a47,47,0,0,1,.75-8.49c3.26,1.62,6.52,3.22,9.83,4.67-.13,1.34-.19,2.71-.19,4.16,0,14.35,6.78,24.19,18.42,24.19,10.68,0,17-7.22,18.43-19C152.88,116.52,156.33,116.67,159.8,116.67Z"/><path class="cls-2" d="M260.64,78C248.09,78,244,84.4,240.75,90.28,239.28,82.48,233.86,78,223.91,78c-11.07,0-15.82,6.33-18.65,13a33.1,33.1,0,0,0,.79-5.43V83.16c0-2.94-2-4.41-4.86-4.41-3.16,0-5.31,1.47-5.31,4.41V111c1-.32,2.08-.68,3.09-1,2.38-.85,4.75-1.79,7.08-2.77v-1.79a20.15,20.15,0,0,1,3.06-10.85c2.71-4.06,6.32-7.57,12.31-7.57,6.39,0,9.48,3.45,10.48,9.7a81.51,81.51,0,0,1,9.55-2.45c1.62-.3,3.24-.52,4.86-.71C249,90,252.73,87,258.15,87c5.62,0,8.65,2.58,10,7.35,3.69.58,7.36,1.36,11,2.28C278.4,84.78,272.92,78,260.64,78Z"/><path class="cls-4" d="M279.29,99.77V138.2c0,3.05-2.26,4.52-5.2,4.52-3.17,0-5.09-1.47-5.09-4.52V102a28.83,28.83,0,0,0-.86-7.68c3.69.58,7.36,1.36,11,2.28C279.25,97.65,279.29,98.68,279.29,99.77Z"/><path class="cls-4" d="M241.45,94.25c1.62-.3,3.24-.52,4.86-.71-.29.38-.55.75-.81,1.15a19.9,19.9,0,0,0-3.06,10.17V138.2c0,3.05-2.14,4.52-5.08,4.52-3.17,0-5.09-1.47-5.09-4.52V102a33.36,33.36,0,0,0-.37-5.33A81.51,81.51,0,0,1,241.45,94.25Z"/><path class="cls-4" d="M206.05,107.21v31c0,3.05-2,4.52-5,4.52-3.16,0-5.2-1.47-5.2-4.52V111c1-.32,2.08-.68,3.09-1C201.35,109.13,203.72,108.19,206.05,107.21Z"/><path class="cls-2" d="M343.93,77.85c-17.29,0-28,11.79-29.16,29.57,3.43,1,6.86,2,10.29,2.86.2-14.63,7.19-23.73,19.21-23.73,11.52,0,18,9.72,18,24,0,1,0,2.07-.1,3,3.49-.32,7-.79,10.46-1.36,0-.52,0-1,0-1.58C372.63,91,362,77.85,343.93,77.85Z"/><path class="cls-4" d="M372.6,112.2c-.55,18.8-11.29,31.65-28.45,31.65-18.64,0-29.49-13.11-29.49-33.23,0-1.09,0-2.14.11-3.2,3.43,1,6.86,2,10.29,2.86V111c0,14.35,6.78,24.19,18.42,24.19,11.47,0,17.83-8.33,18.66-21.59C365.63,113.24,369.11,112.77,372.6,112.2Z"/><path class="cls-2" d="M439.65,77.85c-10.74,0-17.52,5.08-21.47,13.11.11-2.15.45-3.28.45-4.75v-3c0-2.94-2-4.41-5-4.41-3.17,0-5.32,1.47-5.32,4.41v20.55c3.72-1,7.43-2,11.14-2.88a20.18,20.18,0,0,1,3.1-5.8c3.85-5.31,8.93-8,15-8,6.41,0,10.18,3.11,11.63,8.78a89.28,89.28,0,0,1,10.85-.07C458.75,84.37,451.68,77.85,439.65,77.85Z"/><path class="cls-3" d="M419.48,100.83a17.69,17.69,0,0,0-.85,5.72V138.2c0,3.05-2.15,4.52-5.09,4.52-3.16,0-5.2-1.47-5.2-4.52V103.71C412.06,102.71,415.77,101.73,419.48,100.83Z"/><path class="cls-3" d="M460.33,99.89V138.2c0,3.05-2.26,4.52-5.2,4.52s-5.2-1.47-5.2-4.52V102a25.27,25.27,0,0,0-.69-6.25,89.28,89.28,0,0,1,10.85-.07A35.09,35.09,0,0,1,460.33,99.89Z"/><path class="cls-2" d="M503.84,78.75c-3.16,0-5.09,1.47-5.09,4.41v24c3.41,1.57,6.82,3.11,10.29,4.51V83.16C509,80.22,506.89,78.75,503.84,78.75ZM504,53.21a7.63,7.63,0,1,0,7.57,7.57A7.53,7.53,0,0,0,504,53.21Z"/><path class="cls-4" d="M509,111.7v26.5c0,3.05-2.15,4.52-5.2,4.52s-5.09-1.47-5.09-4.52v-31C502.16,108.76,505.57,110.3,509,111.7Z"/><path class="cls-2" d="M67,54H4.72C2,54,.43,56.38.43,59.09S2,64,4.84,64H30.49v47.37a69.09,69.09,0,0,1,10.85-5V64H67c2.6,0,4.3-2.26,4.3-4.86S69.71,54,67,54Z"/><path class="cls-5" d="M41.34,106.33v31.75c0,3.06-2.37,4.64-5.42,4.64s-5.43-1.58-5.43-4.64V111.32A69.09,69.09,0,0,1,41.34,106.33Z"/><path class="cls-2" d="M131,77.85c-18.31,0-29.27,13.22-29.27,32.77,0,.85,0,1.7.07,2.53,3.64,1.79,7.27,3.61,11,5.21a38.34,38.34,0,0,1-.67-7.4c0-15,7-24.41,19.21-24.41,11.52,0,18,9.72,18,24,0,6.8-1.32,12.49-3.92,16.67,3.6.43,7.23.7,10.85.79a41.5,41.5,0,0,0,3.46-17.35C159.66,91,149,77.85,131,77.85Z"/><path class="cls-6" d="M156.2,128c-4.52,9.85-13.26,15.88-25,15.88-17.85,0-28.55-12-29.42-30.7,3.64,1.79,7.27,3.61,11,5.21,2,10.23,8.23,16.79,17.75,16.79,6.74,0,11.73-2.89,14.84-8C149,127.61,152.58,127.88,156.2,128Z"/><path class="cls-2" d="M260.13,78c-12.54,0-16.61,6.44-19.89,12.32C238.77,82.48,233.35,78,223.4,78c-11.07,0-15.82,6.33-18.65,13a33.17,33.17,0,0,0,.8-5.43V83.16c0-2.94-2-4.41-4.86-4.41-3.17,0-5.32,1.47-5.32,4.41v39.22c1-.32,2.08-.68,3.09-1,2.38-.85,4.75-1.79,7.09-2.77V105.42a20.14,20.14,0,0,1,3-10.85c2.71-4.06,6.33-7.57,12.32-7.57,8,0,10.84,5.43,10.84,15V108a73,73,0,0,1,9.18-2.34l1-.17v-.58A19.9,19.9,0,0,1,245,94.69c2.71-4.07,6.66-7.69,12.65-7.69,8.14,0,10.85,5.43,10.85,15v3.81c3.43.56,6.86,1.32,10.29,2.16V99.77C278.78,86,273.47,78,260.13,78Z"/><path class="cls-6" d="M278.78,108v30.2c0,3.05-2.26,4.52-5.2,4.52-3.17,0-5.09-1.47-5.09-4.52V105.84C271.92,106.4,275.35,107.16,278.78,108Z"/><path class="cls-6" d="M241.94,105.44V138.2c0,3.05-2.15,4.52-5.09,4.52-3.16,0-5.09-1.47-5.09-4.52V108a73,73,0,0,1,9.18-2.34Z"/><path class="cls-6" d="M205.55,118.57V138.2c0,3.05-2,4.52-5,4.52-3.16,0-5.2-1.47-5.2-4.52V122.38c1-.32,2.08-.68,3.09-1C200.84,120.49,203.21,119.55,205.55,118.57Z"/><path class="cls-2" d="M343.42,77.85c-18.31,0-29.27,13.22-29.27,32.77a46.94,46.94,0,0,0,.7,8.33q5.64,1.69,11.32,3.09A35.14,35.14,0,0,1,324.55,111c0-15,7-24.41,19.21-24.41,11.53,0,18,9.72,18,24a34.13,34.13,0,0,1-2.81,14.62q5.65-.37,11.3-1.29a43.7,43.7,0,0,0,1.9-13.22C372.12,91,361.5,77.85,343.42,77.85Z"/><path class="cls-6" d="M370.22,123.84c-3.8,12.27-13.26,20-26.57,20-15.94,0-26.17-9.57-28.8-24.9q5.64,1.69,11.32,3.09c2.65,8.1,8.49,13.11,16.8,13.11,7.61,0,13-3.68,15.95-10Q364.58,124.76,370.22,123.84Z"/><path class="cls-2" d="M439.14,77.85c-10.74,0-17.52,5.08-21.47,13.11.11-2.15.45-3.28.45-4.75v-3c0-2.94-2-4.41-5-4.41-3.17,0-5.31,1.47-5.31,4.41v31.91q5.13-1.39,10.28-2.68v-5.84a17.83,17.83,0,0,1,4-11.52c3.84-5.31,8.92-8,15-8,8.47,0,12.31,5.43,12.31,15v5.07a90.23,90.23,0,0,1,10.4,0V99.89C459.82,86,452.59,77.85,439.14,77.85Z"/><path class="cls-5" d="M418.12,112.39V138.2c0,3.05-2.15,4.52-5.09,4.52-3.16,0-5.19-1.47-5.19-4.52V115.07Q413,113.68,418.12,112.39Z"/><path class="cls-5" d="M459.82,107.06V138.2c0,3.05-2.26,4.52-5.2,4.52s-5.2-1.47-5.2-4.52V107.1A90.23,90.23,0,0,1,459.82,107.06Z"/><path class="cls-2" d="M503.33,78.75c-3.16,0-5.08,1.47-5.08,4.41v35.39c3.4,1.57,6.81,3.11,10.28,4.5V83.16C508.53,80.22,506.38,78.75,503.33,78.75Zm.11-25.54A7.63,7.63,0,1,0,511,60.78,7.53,7.53,0,0,0,503.44,53.21Z"/><path class="cls-6" d="M508.53,123.05V138.2c0,3.05-2.15,4.52-5.2,4.52s-5.08-1.47-5.08-4.52V118.55C501.65,120.12,505.06,121.66,508.53,123.05Z"/><path class="cls-7" d="M5.35,64C2.52,64,.94,61.69.94,59.09S2.52,54,5.24,54H67.5c2.71,0,4.3,2.37,4.3,5.08S70.1,64,67.5,64H41.85v74.13c0,3-2.37,4.64-5.42,4.64S31,141.13,31,138.08V64Z"/><path class="cls-7" d="M160.17,110.62c0,19.67-10.85,33.23-28.48,33.23-18.64,0-29.49-13.11-29.49-33.23,0-19.55,11-32.77,29.27-32.77C149.55,77.85,160.17,91,160.17,110.62ZM112.6,111c0,14.35,6.78,24.19,18.42,24.19,12.31,0,18.76-9.61,18.76-24.64,0-14.24-6.45-24-18-24C119.6,86.55,112.6,95.93,112.6,111Z"/><path class="cls-7" d="M279.28,138.2c0,3.05-2.26,4.52-5.19,4.52-3.17,0-5.09-1.47-5.09-4.52V102c0-9.6-2.71-15-10.85-15-6,0-9.94,3.62-12.66,7.69a20,20,0,0,0-3.05,10.17V138.2c0,3.05-2.14,4.52-5.08,4.52-3.17,0-5.09-1.47-5.09-4.52V102c0-9.6-2.82-15-10.85-15-6,0-9.6,3.51-12.31,7.58a20.09,20.09,0,0,0-3.06,10.84V138.2c0,3.05-2,4.52-5,4.52-3.16,0-5.2-1.47-5.2-4.52v-55c0-2.94,2.15-4.41,5.31-4.41,2.83,0,4.86,1.47,4.86,4.41v2.38a33.14,33.14,0,0,1-.79,5.42c2.83-6.67,7.57-13,18.65-13,9.94,0,15.37,4.52,16.84,12.32C244,84.4,248.09,78,260.64,78c13.33,0,18.64,8,18.64,21.81Z"/><path class="cls-7" d="M372.63,110.62c0,19.67-10.85,33.23-28.47,33.23-18.65,0-29.5-13.11-29.5-33.23,0-19.55,11-32.77,29.27-32.77C362,77.85,372.63,91,372.63,110.62Zm-47.57.34c0,14.35,6.78,24.19,18.42,24.19,12.31,0,18.76-9.61,18.76-24.64,0-14.24-6.45-24-18-24C332.06,86.55,325.06,95.93,325.06,111Z"/><path class="cls-7" d="M460.33,138.2c0,3.05-2.26,4.52-5.2,4.52s-5.2-1.47-5.2-4.52V102c0-9.6-3.84-15-12.32-15-6.1,0-11.18,2.72-15,8a17.88,17.88,0,0,0-3.95,11.52V138.2c0,3.05-2.15,4.52-5.09,4.52-3.16,0-5.19-1.47-5.19-4.52v-55c0-2.94,2.14-4.41,5.31-4.41,2.94,0,5,1.47,5,4.41v3c0,1.47-.34,2.6-.45,4.75,3.95-8,10.73-13.11,21.47-13.11,13.45,0,20.68,8.14,20.68,22Z"/><path class="cls-7" d="M511.52,60.79A7.63,7.63,0,1,1,504,53.21,7.53,7.53,0,0,1,511.52,60.79ZM498.75,83.16c0-2.94,1.93-4.41,5.09-4.41s5.2,1.47,5.2,4.41v55c0,3.05-2.15,4.52-5.2,4.52s-5.09-1.47-5.09-4.52Z"/><text class="cls-8" transform="translate(165.98 15.84)">ともに旅するアルバム</text></g></g></svg>